# xmcd
#
# Track frame offsets:
#	150
#	11763
#	30641
#	49642
#	66509
#	82534
#	102993
#	122294
#	136375
#	150524
#	163074
#	186721
#	205404
#
# Disc length: 2913 seconds
#
# Revision: 0
# Processed by: cddbd v1.5.2PL0 Copyright (c) Steve Scherf et al.
# Submitted via: audiograbber 1.83.01
#
DISCID=aa0b5f0d
DTITLE=The Bad Luck and Trouble Blues Band - Five Long Years
DYEAR=2006
DGENRE=Blues
TTITLE0=Crossroads
TTITLE1=Rollin´ and tumblin
TTITLE2=Baby please don´t go
TTITLE3=Everyday I have the Blues
TTITLE4=Green Stuff
TTITLE5=Wang Wang Doodle
TTITLE6=Little Red Rooster
TTITLE7=Shake your Moneymaker
TTITLE8=My Babe
TTITLE9=Hifi Baby
TTITLE10=Hi Heel Sneekers
TTITLE11=Haarlem Suffle
TTITLE12=Marack
EXTD=
EXTT0=
EXTT1=
EXTT2=
EXTT3=
EXTT4=
EXTT5=
EXTT6=
EXTT7=
EXTT8=
EXTT9=
EXTT10=
EXTT11=
EXTT12=
PLAYORDER=
